<mxfile host="app.diagrams.net" modified="2023-10-23T12:57:19.621Z" agent="Mozilla/5.0 (Macintosh; Intel Mac OS X 10_15_7) AppleWebKit/537.36 (KHTML, like Gecko) Chrome/116.0.0.0 Safari/537.36" version="21.7.5" etag="eCB3sVQ04KngacYRm8Sh" type="github">
  <diagram name="第 1 页" id="8HOx_5EW2D0H_HqQmKYC">
    <mxGraphModel>
      <root>
        <mxCell id="0" />
        <mxCell id="1" parent="0" />
      </root>
    </mxGraphModel>
  </diagram>
</mxfile>
